<?xml version='1.0' encoding='utf-8'?>
<svg xmlns="http://www.w3.org/2000/svg" enable-background="new 0 0 5000 507.342" version="1.1" viewBox="0 0 5e3 507.34"> <path d="m2500 31.454c-167.6 34.515-265.4 195.49-201.96 333.97 9.372 20.458 8.848 28.891-1.794 28.891-1.507 0-5.171 1.823-8.14 4.053-38.563 28.94-160.19 46.708-221.63 32.373-18.904-4.41-31.989-6.13-45.284-11.614-23.773-9.807-51.69-20.283-54.056-20.283-1.759 0-2.55-9.098-2.55-29.333 0-74.602-42.616-143.62-110.54-179.03-11.059-5.764-11.384-7.39-3.722-18.667 9.397-13.832 31.587-5.594 43.769 16.25 8.127 14.571 16.357 14.725 19.513 0.366 0.764-3.477 6.433-12.581 12.598-20.232 14.379-17.844 14.475-22.622 0.633-31.789-13.226-8.761-15.725-8.737-24.976 0.231-9.756 9.457-10.464 18.948-1.24 16.638 26.496-6.633 16.859 3.366 6.366 18.012-3.153 4.402-3.516 4.267-13.013-4.847-5.373-5.157-13.08-11.042-17.128-13.078-12.546-6.309 12.484-35.849 48.727-57.512 15.109-9.03 19.196-10.486 48.533-17.276 41.313-9.562 86.936 1.218 92.492 21.856 2.897 10.76 11.663 20.46 16.732 18.516 4.285-1.645 4.832-18.155 0.889-26.809-3.334-7.316-1.226-9.476 6.019-6.174 4.487 2.045 5.669 4.245 5.669 10.557 0 4.385 1.019 7.974 2.264 7.974 3.232 0 2.796 5.987-0.961 13.253-3.448 6.669 7.78 22.974 15.822 22.974 4.313 0 4.196 8.212-0.143 9.875-4.492 1.723-4.376 8.237 0.148 8.237 1.948 0 6.184 3.14 9.414 6.977 5.188 6.166 6.817 6.805 14.005 5.496 32.595-5.941 14.548-72.391-25.263-93.018-9.156-4.744-14.099-10.025-9.38-10.025 5.285 0 31.886 15.43 41.491 24.066 29.379 26.415 35.846 50.802 19.245 72.568-6.567 8.608-6.662 10.016-1.629 24.057 4.155 11.592 4.868 11.819 19.518 6.249 12.751-4.847 20.467-35.567 14.216-56.612-6.999-23.567-2.177-26.037 5.792-2.968 9.035 26.158 7.819 64.917-2.647 84.313-22.13 41.015-61.475 59.963-70.539 33.968-4.087-11.723-15.871-9.744-23.734 3.985-3.388 5.916-6.414 11.107-6.727 11.537-1.784 2.458-14.481-2.893-15.658-6.599-4.485-14.136-27.633 4.875-30.517 25.064l-1.133 7.924-16.982-0.156c-26.801-0.247-49.623-14.51-57.903-36.186-6.475-16.956-0.027-34.979 12.517-34.979 10.726 0 16.352-17.509 9.278-28.869-5.812-9.333-9.402-9.241-22.787 0.583-50.538 37.1 8.174 124.28 74.165 110.13 17.718-3.8 52.743 0.332 47.473 5.599-2.825 2.825-49.436 3.706-66.794 1.264-65.895-9.275-109.69-80.088-77.242-124.88 14.641-20.212 47.483-21.545 52.559-2.135 1.548 5.922 12.054 8.06 17.113 3.482 5.592-5.062 7.089-4.609 7.089 2.145 0 23.072-35.356 23.365-16.512 32.116 18.395 8.544 33.273-0.265 35.894-21.254 7.4-59.237-90.334-70.631-113.88-13.274-31.902 77.718 67.964 159.04 166.72 135.77 12.95-3.051 51.683-19.637 54.571-23.367 4.199-5.421 8.561 2.301 44.701-44.617 37.05-48.103 28.19-136.95-17.29-173.38-3.674-2.942-9.561-7.637-13.083-10.431-52.957-42.017-199.39-51.069-296.22 48.067l-20.382 20.866c-68.745-24.256-232.38-28.974-302.26-20.062-60.325 7.693-116.13 19.95-161.89 35.56-86.881 29.634-156.34 33.312-183.29 9.709-11.193-9.802-21.671 29.49-13.828 51.862 1.573 4.487 0.517 5.604-9.234 9.783-24.797 10.629-48.803 43.551-37.052 50.812 4.548 2.812 1.624 5.288-33.397 28.267-107.88 70.791-85.598 55.719-141.3 80.646-67.46 30.187-176.07 38.134-256.63 18.778-101.04-24.277-115.33-62.475-132.46-92.334-30.813-53.729 42.651-139.03 120-139.35 92.421-0.374 123.17 91.371 38.574 115.11-43.265 12.139-93.397-22.074-67.583-46.123 8.443-7.867 12.323-4.861 8.367 6.484-8.125 23.307 28.296 30.308 38.596 7.418 2.827-6.281 4.349-7.198 11.967-7.198 14.233 0 19.888-5.24 19.888-18.431 0-16.044-17.972-22.074-29.435-9.872-10.899 11.602-15.306 2.446-6.652-2.958 10.265-6.411-3.393-25.151-18.443-25.307-8.986-0.094-21.494 14.857-18.693 22.343 2.587 6.914 2.477 7.089-7.167 11.355-37.447 16.565-17.06 67.261 31.905 79.334 40.523 9.993 65.333 9.001 85.986-3.436 12.752-7.68 13.787-7.921 22.933-5.361 16.087 4.504 28.906-0.119 33.089-11.933 2.371-6.698 2.038 0.248 37.566 5.994 25.549 4.133 41.784 12.612 24.144 12.612-7.492 0-9.18 3.613-4.805 10.289 9.011 13.753 12.886-3.495 20.431-3.495 6.494 0 20.075-32.458 18.363-43.883l-1.502-10.015c44.376-1.599 42.781-0.435 49.873-8.935 4.07-4.878 8.147-7.358 12.092-7.358 25.071 0 68.983-20.351 66.884-30.999-1.019-5.167-12.905-5.15-32.407 0.046-15.138 4.035-42.755 4.847-59.323 1.749-5.977-1.117-17.732-3.264-26.124-4.769-49.625-8.901-91.565-31.861-142.2-42.912-145.45-31.745-270.72 45.133-243.48 149.43 7.87 30.134 54.92 79.157 75.973 79.157 0.966 0 3.024 1.529 4.574 3.397 2.31 2.784 2.148 3.397-0.896 3.397-5.989 0-82.707-39.983-87.964-45.842-26.86-29.949-30.541-27.168-26.743-38.676 6.819-20.664-11.69-44.624-26.474-34.269-6.776 4.745-8.617-2.451-5.266-20.577 6.528-35.312 6.387-35.457-31.83-32.875-29.764 2.01-30.398 1.956-38.192-3.339-30.682-20.844-73.488-22.181-58.879-1.837 8.936 12.444 7.787 13.915-7.377 9.433-53.086-15.685-68.096-18.198-115.7-19.375-74.721-1.847-112.78 7.574-148.62 36.79-40.983 33.409-70.245 43.063-72.073 23.778-0.993-10.469-3.944-13.593-12.835-13.593-9.901 0-13.104 4.339-11.158 15.112 3.32 18.373 12.721 24.185 37.292 23.05 13.816-0.638 16.116-0.136 20.397 4.458 9.464 10.159 21.15 6.256 22.528-7.525 1.556-15.573 8.967-16.391 12.583-1.39 4.893 20.297 36.598 28.76 49.065 13.097 10.682-13.42-4.82-31.293-15.993-18.439-6.002 6.904-13.956 4.376-13.956-4.434 0-29.674 86.786-48.803 149.44-32.941 15.065 3.813 50.224 11.207 53.095 13.835 1.182 1.083 4.063 1.968 6.4 1.968 4.291 0 79.29 26.19 118.02 51.88 10.273 6.814 10.744 8.591 46.169 22.749 4.097 1.638 8.681 4.62 10.188 6.628 3.727 4.965 72.452 37.68 83.654 43.497 9.703 5.038-7.173-4.37 35.326 12.561 84.784 33.774 238.27 46.101 320.75 25.756 4.982-1.228 18.509-3.786 30.063-5.683 60.674-9.964 162.79-47.887 186.17-55.573 22.875-7.521 14.85-7.708 69.983-29.231 19.016 8.63 23.734 12.015 43.769 4.4 6.552-2.49 14.204-4.528 17.005-4.528 11.532-3e-3 -6.586-11.185 30.179-11.297 9.748-0.031 26.709-10.571 35.451-22.035 3.301-4.329 8.353-8.765 11.226-9.857 10.311-3.921 6.285-12.847-7.021-15.568-14.442-2.954-4.366-28.229 21.907-54.955 39.43-40.11 103.21-67.299 205.43-87.58 54.736-10.86 166.04-7.588 230.95 6.79 31.573 6.992 35.22 10.139 28.16 24.294-4.764 9.549-6.468 10.244-14.69 5.992-80.224-41.486-247.38-28.629-323.77 24.903-14.748 10.335-19.512 12.515-27.326 12.515-8.788 0-10.865 1.351-29.068 18.899-22.51 21.7-36.015 26.765-39.775 14.92-1.851-5.832-9.45-5.603-11.338 0.342-5.048 15.903 14.042 36.031 34.172 36.031 6.606 0 6.591-0.231 1.036 17.494-38.37 122.39 148.11 223.37 219.87 119.07 6.969-10.129 10.472-11.569 17.483-7.191 11.236 7.018 34.256-3.434 34.354-15.597 0.214-27.001 40.971-52.317 53.483-33.222 8.763 13.374-6.601 25.661-18.32 14.651-6.615-6.213-13.076-4.038-12.126 4.084 0.585 5.001 2.208 6.169 10.877 7.836 5.604 1.077 11.158 2.886 12.34 4.023 11.925 11.444 30.781-18.608 19.327-30.801-2.507-2.67-5.838-9.261-7.396-14.648-5.613-19.385-84.272-21.429-84.272-2.189 0 5.769-8.499 11.717-13.823 9.675-3.06-1.174-3.454-2.109-7.503-17.71-6.421-24.746-51.108-42.905-70.433-28.617-3.604 2.664-7.421 4.842-8.484 4.842-6.356 0-21.639 23.45-19.618 30.104 4.264 14.051 11.753 19.708 26.09 19.708 21.991 0 32.63-11.171 26.969-28.321-6.135-18.589 20.198-8.164 30.97 12.262 27.733 52.583-39.182 106.88-110.66 89.798-52.016-12.433-95.914-69.765-89.004-116.24 1.832-12.319 4.65-10.641 6.36 3.788 3.521 29.73 54.272 66.217 57.777 41.541 0.398-2.801 1.67-5.094 2.83-5.094 15.74 0-3.341-25.659-20.198-27.163-30.037-2.679-32.461-56.417-4.07-90.225 11.59-13.801 4.919-12.134 16.752-23.277 62.861-59.191 198.12-75.807 307.37-37.761 24.615 8.572 22.36 6.768 20.547 16.429-1.82 9.698-2.347 9.737-20.075 1.493-67.328-31.305-150.77-19.339-171.12 24.537-15.257 32.887-3.953 58.349 27.838 62.706 25.059 3.434 47.17-17.094 27.338-25.381-9.875-4.126-9.908-6.506-0.214-15.648 21.089-19.89 81.622-17.798 116.08 4.011l8.205 5.193c0.969 36.61-0.925 81.413 44.992 139.91 10.413 13.267 10.348 12.537 1.859 20.671-6.322 6.057-7.36 6.334-14.311 3.82-15.271-5.523-30.102-1.56-28.343 7.571 2.958 15.361 44.308 12.746 53.486-3.381 4.121-7.242 8.926-8.953 10.875-3.871 3.534 9.21 54.913 40.593 86.998 53.142 57.418 22.455 165.1 32.196 229.82 20.79 44.93-7.919 86.133-19.555 104.15-29.415 35.387-19.359 49.201-25.659 51.916-23.678 1.635 1.192 8.452 6.329 15.152 11.413 32.53 24.686 81.575 44.109 129.86 52.835 48.284-8.726 97.33-28.149 129.86-52.835 6.7-5.084 13.517-10.221 15.152-11.413 2.714-1.981 16.529 4.319 51.916 23.678 18.021 9.86 59.223 21.496 104.15 29.415 64.713 11.406 172.4 1.665 229.82-20.79 32.085-12.549 83.464-43.932 86.998-53.142 1.949-5.082 6.754-3.371 10.876 3.871 9.178 16.128 50.528 18.742 53.486 3.381 1.759-9.13-13.073-13.093-28.343-7.571-6.951 2.514-7.989 2.237-14.311-3.82-8.489-8.134-8.553-7.404 1.859-20.671 45.917-58.495 44.022-103.3 44.992-139.91l8.205-5.193c34.461-21.809 94.994-23.901 116.08-4.011 9.693 9.142 9.661 11.522-0.214 15.648-19.832 8.287 2.279 28.815 27.338 25.381 31.791-4.358 43.095-29.82 27.838-62.706-20.356-43.876-103.8-55.842-171.12-24.537-17.728 8.244-18.256 8.205-20.075-1.493-1.813-9.661-4.069-7.856 20.547-16.429 109.25-38.045 244.5-21.429 307.37 37.761 11.833 11.143 5.162 9.476 16.752 23.277 28.391 33.808 25.967 87.546-4.07 90.225-16.857 1.504-35.938 27.163-20.198 27.163 1.16 0 2.432 2.293 2.83 5.094 3.506 24.676 54.256-11.811 57.777-41.541 1.709-14.429 4.528-16.107 6.36-3.788 6.911 46.47-36.987 103.8-89.004 116.24-71.478 17.085-138.39-37.215-110.66-89.798 10.772-20.426 37.105-30.851 30.97-12.262-5.661 17.15 4.979 28.321 26.969 28.321 14.337 0 21.826-5.657 26.09-19.708 2.021-6.654-13.262-30.104-19.618-30.104-1.063 0-4.88-2.179-8.484-4.842-19.325-14.287-64.012 3.871-70.433 28.617-4.048 15.6-4.443 16.536-7.503 17.71-5.324 2.043-13.823-3.905-13.823-9.675 0-19.24-78.659-17.196-84.272 2.189-1.558 5.387-4.888 11.978-7.395 14.648-11.454 12.194 7.402 42.245 19.327 30.801 1.182-1.136 6.735-2.946 12.34-4.023 8.669-1.667 10.292-2.835 10.877-7.836 0.951-8.122-5.511-10.297-12.126-4.084-11.719 11.01-27.083-1.277-18.32-14.651 12.512-19.096 53.268 6.22 53.482 33.222 0.099 12.163 23.118 22.615 34.354 15.597 7.011-4.378 10.515-2.937 17.483 7.191 71.762 104.3 258.24 3.317 219.87-119.07-5.555-17.725-5.57-17.494 1.036-17.494 20.13 0 39.221-20.128 34.172-36.031-1.888-5.945-9.487-6.174-11.338-0.342-3.761 11.845-17.266 6.78-39.775-14.92-18.203-17.548-20.28-18.899-29.068-18.899-7.814 0-12.578-2.181-27.326-12.515-76.397-53.532-243.55-66.389-323.77-24.903-8.222 4.252-9.926 3.557-14.69-5.992-7.06-14.155-3.414-17.301 28.16-24.294 64.909-14.378 176.21-17.65 230.95-6.79 102.23 20.281 166 47.47 205.43 87.58 26.273 26.726 36.35 52.001 21.907 54.955-13.306 2.721-17.332 11.648-7.021 15.568 2.873 1.092 7.924 5.528 11.226 9.857 8.743 11.464 25.704 22.004 35.452 22.035 36.764 0.112 18.646 11.294 30.178 11.297 2.802 0 10.454 2.038 17.006 4.528 20.034 7.615 24.753 4.23 43.769-4.4 55.132 21.523 47.108 21.71 69.983 29.231 23.38 7.686 125.49 45.609 186.17 55.573 11.554 1.896 25.081 4.455 30.063 5.683 82.481 20.344 235.97 8.018 320.75-25.756 42.498-16.931 25.622-7.523 35.326-12.561 11.202-5.817 79.928-38.532 83.654-43.497 1.507-2.009 6.091-4.99 10.188-6.628 35.424-14.158 35.896-15.936 46.169-22.749 38.727-25.69 113.73-51.88 118.02-51.88 2.337 0 5.218-0.884 6.4-1.968 2.871-2.628 38.03-10.022 53.095-13.835 62.652-15.862 149.44 3.267 149.44 32.941 0 8.811-7.954 11.338-13.956 4.434-11.173-12.854-26.675 5.019-15.993 18.439 12.467 15.663 44.172 7.2 49.065-13.097 3.616-15.002 11.026-14.184 12.583 1.39 1.377 13.78 13.064 17.684 22.528 7.525 4.281-4.594 6.581-5.096 20.397-4.458 24.571 1.134 33.972-4.677 37.292-23.05 1.946-10.773-1.257-15.112-11.158-15.112-8.891 0-11.842 3.124-12.835 13.593-1.829 19.285-31.09 9.63-72.073-23.778-35.839-29.216-73.895-38.637-148.62-36.79-47.606 1.177-62.616 3.689-115.7 19.375-15.164 4.482-16.313 3.01-7.376-9.433 14.608-20.344-28.197-19.007-58.879 1.837-7.793 5.295-8.428 5.349-38.192 3.339-38.217-2.582-38.358-2.437-31.83 32.875 3.351 18.126 1.51 25.323-5.266 20.577-14.784-10.355-33.293 13.605-26.474 34.269 3.798 11.508 0.117 8.727-26.743 38.676-5.258 5.86-81.976 45.842-87.965 45.842-3.044 0-3.206-0.612-0.896-3.397 1.549-1.868 3.607-3.397 4.573-3.397 21.054 0 68.104-49.023 75.974-79.157 27.239-104.3-98.025-181.17-243.48-149.43-50.632 11.051-92.572 34.011-142.2 42.912-8.392 1.505-20.147 3.652-26.124 4.769-16.568 3.099-44.186 2.286-59.323-1.749-19.502-5.196-31.388-5.213-32.407-0.046-2.099 10.647 41.813 30.999 66.884 30.999 3.944 0 8.021 2.48 12.092 7.358 7.093 8.499 5.497 7.336 49.873 8.935l-1.502 10.015c-1.713 11.425 11.869 43.883 18.363 43.883 7.545 0 11.42 17.249 20.431 3.495 4.375-6.676 2.688-10.289-4.805-10.289-17.64 0-1.405-8.479 24.144-12.612 35.528-5.746 35.195-12.692 37.566-5.994 4.183 11.814 17.002 16.437 33.089 11.933 9.146-2.56 10.182-2.318 22.933 5.361 20.654 12.437 45.462 13.428 85.986 3.436 48.965-12.073 69.352-62.769 31.905-79.334-9.644-4.266-9.754-4.441-7.167-11.355 2.801-7.486-9.707-22.436-18.692-22.343-15.049 0.157-28.708 18.897-18.443 25.307 8.654 5.404 4.247 14.56-6.652 2.958-11.464-12.202-29.436-6.172-29.436 9.872 0 13.19 5.655 18.431 19.888 18.431 7.618 0 9.141 0.917 11.967 7.198 10.301 22.89 46.722 15.89 38.597-7.418-3.957-11.345-0.077-14.35 8.367-6.484 25.814 24.049-24.318 58.262-67.583 46.123-84.593-23.736-53.847-115.48 38.574-115.11 77.351 0.315 150.82 85.619 120 139.35-17.125 29.859-31.416 68.057-132.46 92.334-80.566 19.356-189.17 11.41-256.63-18.778-55.704-24.926-33.421-9.855-141.3-80.646-35.021-22.979-37.945-25.455-33.397-28.267 11.751-7.261-12.255-40.183-37.052-50.812-9.751-4.179-10.807-5.297-9.234-9.783 7.843-22.372-2.635-61.664-13.828-51.862-26.952 23.603-96.406 19.926-183.29-9.709-45.766-15.611-101.57-27.867-161.89-35.56-69.884-8.913-233.52-4.194-302.26 20.062l-20.382-20.866c-96.836-99.136-243.27-90.084-296.22-48.067-3.523 2.795-9.409 7.489-13.083 10.431-45.48 36.426-54.34 125.28-17.29 173.38 36.14 46.919 40.501 39.197 44.701 44.617 2.888 3.73 41.621 20.315 54.571 23.367 98.755 23.277 198.62-58.049 166.72-135.77-23.544-57.357-121.28-45.963-113.88 13.274 2.621 20.989 17.499 29.798 35.894 21.254 18.844-8.751-16.512-9.044-16.512-32.116 0-6.754 1.497-7.207 7.089-2.145 5.058 4.579 15.565 2.441 17.113-3.482 5.075-19.41 37.918-18.077 52.559 2.135 32.451 44.796-11.347 115.61-77.242 124.88-17.357 2.443-63.968 1.561-66.793-1.264-5.27-5.268 29.755-9.399 47.473-5.599 65.991 14.153 124.7-73.032 74.165-110.13-13.384-9.824-16.975-9.916-22.787-0.583-7.074 11.36-1.448 28.869 9.278 28.869 12.544 0 18.992 18.023 12.517 34.979-8.28 21.676-31.102 35.94-57.903 36.186l-16.982 0.156-1.133-7.924c-2.885-20.189-26.032-39.2-30.517-25.064-1.177 3.706-13.874 9.057-15.658 6.599-0.313-0.43-3.339-5.621-6.727-11.537-7.863-13.73-19.647-15.708-23.734-3.985-9.064 25.995-48.409 7.047-70.539-33.968-10.466-19.395-11.682-58.155-2.647-84.313 7.969-23.069 12.791-20.599 5.792 2.968-6.25 21.045 1.465 51.765 14.216 56.612 14.65 5.57 15.362 5.342 19.518-6.249 5.033-14.041 4.938-15.449-1.629-24.057-16.601-21.766-10.134-46.153 19.245-72.568 9.605-8.635 36.207-24.066 41.491-24.066 4.718 0-0.224 5.281-9.38 10.025-39.811 20.627-57.859 87.077-25.263 93.018 7.188 1.31 8.817 0.67 14.005-5.496 3.23-3.837 7.467-6.977 9.414-6.977 4.524 0 4.64-6.514 0.148-8.237-4.339-1.664-4.456-9.875-0.143-9.875 8.042 0 19.269-16.305 15.822-22.974-3.757-7.266-4.193-13.253-0.961-13.253 1.245 0 2.264-3.589 2.264-7.974 0-6.312 1.182-8.513 5.669-10.557 7.246-3.301 9.353-1.141 6.019 6.174-3.943 8.654-3.395 25.165 0.889 26.809 5.069 1.944 13.835-7.756 16.732-18.516 5.557-20.638 51.18-31.419 92.492-21.856 29.337 6.79 33.424 8.246 48.533 17.276 36.242 21.662 61.272 51.203 48.727 57.512-4.048 2.036-11.755 7.921-17.128 13.078-9.498 9.115-9.86 9.249-13.013 4.847-10.493-14.646-20.13-24.646 6.366-18.012 9.224 2.31 8.516-7.181-1.24-16.638-9.251-8.969-11.75-8.993-24.976-0.231-13.842 9.168-13.746 13.945 0.633 31.789 6.166 7.651 11.835 16.755 12.598 20.232 3.155 14.359 11.386 14.206 19.512-0.366 12.182-21.844 34.372-30.082 43.769-16.25 7.663 11.277 7.338 12.903-3.721 18.667-67.925 35.404-110.54 104.42-110.54 179.03 0 20.235-0.791 29.333-2.55 29.333-2.366 0-30.282 10.476-54.056 20.283-13.296 5.484-26.381 7.203-45.284 11.614-61.444 14.335-183.07-3.432-221.63-32.373-2.97-2.23-6.634-4.053-8.14-4.053-10.643 0-11.167-8.433-1.794-28.891 63.43-138.48-34.367-299.46-201.97-333.97zm0-31.384c-22.734-0.755-51.099 4.552-84.484 15.907-100.91 34.32-193.86 37.441-204.52 6.865-4.961-14.233-17.723-5.795-17.723 11.717 0 19.703 11.966 36.562 28.365 39.971 11.017 2.289 12.844 7.935 4.65 14.378-10.185 8.011-6.373 17.854 6.914 17.854 10.598 0 13.922 4.956 35.89 5.366 13.91 0.258 15.919 0.842 16.648 4.824 3.548 19.342 25.415 11.673 45.194-15.849 37.008-51.496 124.58-72.938 169.07-78.015 44.485 5.076 132.06 26.519 169.07 78.015 19.78 27.522 41.646 35.191 45.194 15.849 0.729-3.982 2.738-4.565 16.648-4.824 21.968-0.41 25.292-5.366 35.89-5.366 13.287 0 17.099-9.843 6.914-17.854-8.193-6.443-6.366-12.088 4.65-14.378 16.4-3.409 28.365-20.268 28.365-39.971 0-17.512-12.762-25.95-17.723-11.717-10.659 30.577-103.61 27.456-204.52-6.865-33.383-11.355-61.748-16.661-84.482-15.907zm-135.44 53.546c-15.905 8.076-40.364 28.415-51.281 42.643-8.132 10.596-10.137 11.983-12.296 8.492 0 0.284-1.18-2.058 2.131-4.805 11.226-9.317 2.077-13.372-15.284-6.773-29.677 11.28-53.183 2.237-34.06-13.105 10.533-8.452 7.79-14.007-6.996-14.163-13.564-0.145-31.795-6.88-32.772-12.112-2.303-12.292 17.65 13.752 92.487 5.669 13.076-1.412 32.688-5.177 43.583-8.368 25.605-7.5 32.024-6.38 14.488 2.522zm285.37-2.522c10.896 3.191 30.507 6.957 43.583 8.368 74.837 8.083 94.79-17.961 92.487-5.669-0.978 5.232-19.208 11.967-32.772 12.112-14.786 0.157-17.529 5.712-6.996 14.163 19.123 15.342-4.383 24.386-34.06 13.105-17.361-6.599-26.51-2.545-15.284 6.773 3.312 2.747 2.131 5.089 2.131 4.805-2.158 3.49-4.164 2.104-12.296-8.492-10.918-14.228-35.377-34.567-51.281-42.643-17.536-8.902-11.117-10.022 14.488-2.522zm-1870.1 122.39c12.935 1.895 15.946 4.237 11.825 9.203-2.556 3.08-2.524 3.992 0.209 5.722 5.103 3.228 8.639 2.502 11.702-2.402 4.601-7.367 16.038-4.807 75.325 16.863 48.766 17.824 103.56 26.563 137.27 21.892 16.959-2.351 20.38-1.91 16.368 2.102-4.206 4.206-30.949 7.06-51.314 5.477l-19.941-1.551c0.854 10.724 0.539 6.766 1.391 17.482-10.11-0.645-20.669-0.623-36.227-7.12-7.472-3.121-15.623-6.193-18.114-6.824-2.49-0.633-6.752-2.22-9.471-3.526-7.433-3.574-12.474-0.668-11.626 6.703 0.718 6.234 13.17 11.205 13.17 5.257 0-4.655 4.262-2.323 14.541 7.955 19.046 19.046 17.169 46.732-2.633 38.809-20.991-8.399-68.513-8.853-68.513-28.901 0-13.689-15.026-10.84-12.2 6.829 1.541 9.639-3.989 24.969-9.01 24.969-7.212 0-10.489-2.905-10.489-9.299 0-9.62-5.184-8.327-18.997 4.735-14.313 13.537-42.138 24.263-42.138 16.242h2e-3c0-1.048 4.055-3.121 9.011-4.606 25.607-7.671 46.943-39.746 44.429-66.792-2.084-22.424-20.788-53.176-32.495-53.43-1.556-0.034-2.83-1.706-2.83-3.715-1e-3 -3.066 1.717-3.399 10.754-2.074zm3451.1 2.075c0 2.009-1.274 3.681-2.83 3.715-11.708 0.254-30.412 31.005-32.496 53.43-2.514 27.046 18.822 59.121 44.429 66.792 4.957 1.485 9.011 3.558 9.011 4.606h2e-3c0 8.021-27.825-2.704-42.138-16.242-13.813-13.063-18.997-14.355-18.997-4.735 0 6.394-3.278 9.299-10.489 9.299-5.021 0-10.551-15.33-9.01-24.969 2.825-17.669-12.2-20.518-12.2-6.829 0 20.048-47.523 20.502-68.513 28.901-19.802 7.923-21.679-19.763-2.633-38.809 10.279-10.278 14.541-12.61 14.541-7.955 0 5.948 12.452 0.976 13.17-5.257 0.849-7.372-4.193-10.277-11.625-6.703-2.718 1.306-6.98 2.893-9.47 3.526-2.492 0.631-10.643 3.703-18.115 6.824-15.558 6.497-26.117 6.475-36.227 7.12 0.852-10.716 0.537-6.758 1.391-17.482l-19.941 1.551c-20.365 1.584-47.107-1.27-51.314-5.477-4.012-4.012-0.592-4.453 16.368-2.102 33.706 4.671 88.505-4.068 137.27-21.892 59.288-21.669 70.725-24.229 75.325-16.863 3.063 4.904 6.6 5.63 11.702 2.402 2.733-1.73 2.766-2.642 0.209-5.722-4.122-4.967-1.111-7.309 11.824-9.203 9.037-1.326 10.755-0.993 10.755 2.074zm-3722.1 164c-132.1-82.753-297.28-124.62-367.46-93.125-13.076 5.868-20.39 5.496-12.035-0.612 37.149-27.165 200.97-23.345 253.13 5.904 13.445 7.538 19.494-1.102 10.777-15.398-17.687-29.008 23.14-5.982 29.286 7.981 3.87 8.792 11.217 9.751 21.668 2.83 6.94-4.596 21.355-5.695 32.83-2.502 5.652 1.572 5.661 1.623 5.79 30.504 0.141 31.281 0.813 33.031 12.738 33.099 4.16 0.024 6.54-1.432 7.552-4.623 0.881-2.774 3.002-4.346 5.247-3.886 5.261 1.075 4.574 16.206-1.022 22.513-2.907 3.274-3.409 5.108-1.575 5.749 4.837 1.696 23.348 16.662 23.348 18.876-3e-3 7.069-20.271-7.996-20.271-7.31zm3962.1 7.309c0-2.215 18.511-17.181 23.348-18.876 1.833-0.641 1.332-2.475-1.575-5.749-5.596-6.307-6.283-21.438-1.022-22.513 2.245-0.459 4.366 1.112 5.248 3.886 1.012 3.191 3.391 4.647 7.552 4.623 11.925-0.068 12.597-1.818 12.738-33.099 0.129-28.881 0.138-28.932 5.79-30.504 11.476-3.193 25.891-2.094 32.83 2.502 10.45 6.921 17.798 5.962 21.667-2.83 6.146-13.963 46.974-36.989 29.286-7.981-8.717 14.296-2.669 22.936 10.777 15.398 52.159-29.248 215.98-33.069 253.13-5.904 8.354 6.108 1.041 6.48-12.036 0.612-70.175-31.492-235.36 10.372-367.46 93.125 0-0.685-20.268 14.38-20.27 7.31zm-3104.5-130.31c-29.714 28.61-43.415 61.8-30.975 75.041 10.551 11.231-9.278 23.766-37.498 23.705-18.708-0.043-23.923 1.924-23.923 9.018 0 16.08-28.245 10.886-35.523-6.533-2.158-5.166-4.261-7.215-6.479-6.317-1.806 0.731-4.812 1.949-6.679 2.706-1.868 0.757-3.397 0.247-3.397-1.131 0-2.971-8.862-3.278-13.309-0.461-4.739 3-0.857 7.011 6.785 7.011 8.474 0 6.793 3.145-4.859 9.09-10.533 5.375-13.832 5.674-12.076 1.1 1.483-3.864-18.211-5.145-20.565-1.337-2.216 3.587 1.323 9.261 5.776 9.261 9.227 0 3.443 4.518-14.395 11.239-42.488 16.014-56.881 23.234-119.92 40.563-41.486 11.404-44.799 12.112-44.799 9.573 0-3.652 78.443-25.513 134.63-54.486 14.136-7.29 11.627-2.306 20.858-9.867 9.171-7.511 45.738-24.164 47.455-26.942 1.633-2.643 21.708-11.695 26.054-15.913 6.485-6.293 120.9-75.162 121.12-75.303 25.023-15.711 28.019-15.717 11.714-0.017zm2278.9 0.017c0.226 0.141 114.64 69.01 121.12 75.303 4.346 4.218 24.421 13.27 26.054 15.913 1.716 2.778 38.283 19.431 47.455 26.942 9.231 7.56 6.722 2.577 20.858 9.867 56.19 28.973 134.63 50.834 134.63 54.486 0 2.539-3.313 1.832-44.799-9.573-63.04-17.329-77.433-24.549-119.92-40.563-17.837-6.722-23.622-11.239-14.395-11.239 4.453 0 7.992-5.674 5.776-9.261-2.354-3.808-22.049-2.527-20.565 1.337 1.756 4.574-1.542 4.274-12.076-1.1-11.653-5.945-13.333-9.09-4.859-9.09 7.642 0 11.523-4.011 6.785-7.011-4.448-2.817-13.309-2.51-13.309 0.461 0 1.378-1.529 1.888-3.397 1.131s-4.873-1.975-6.679-2.706c-2.218-0.898-4.32 1.151-6.479 6.317-7.278 17.419-35.523 22.613-35.523 6.533 0-7.094-5.215-9.061-23.923-9.018-28.219 0.061-48.048-12.474-37.498-23.705 12.44-13.241-1.26-46.431-30.975-75.041-16.305-15.7-13.309-15.694 11.714 0.017zm-2201.5-57.905c-58.633 23.294-97.416 52.244-100.86 52.244-2.145 0-24.673 16.274-30.468 18.837-13.102 5.793-102.71 66.518-155.1 90.941-22.343 10.416-121.97 60.061-139.12 60.031-3.446-5e-3 30.32-18.152 30.434-18.378 72.852-39.409 68.268-47.793 74.204-39.675 4.495 6.149 16.128 4.261 17.123-2.779 0.697-4.927 0.095-5.288-7.358-4.417-20.456 2.388 4.706-6.179 30.196-28.401 6.946-6.057 14.924-12.08 17.725-13.383 9.122-4.242 6.633-20.208-12.095-11.277-10.345 4.933-12.226 2.038-4.155-6.399 13.752-14.372 45.376-27.906 59.817-25.597 8.969 1.434 14.711-2.667 12.348-8.822-1.56-4.065-13.345-9.459-16.461-7.531-6.763 4.179-16.247-3.574-16.247-13.284 0-14.435 3.977-16.67 19.975-11.224 30.187 10.275 106.8 3.315 150.97-13.714 39.064-15.061 78.057-26.859 84.522-25.571 2.085 0.413-4.873 4.193-15.46 8.399zm2096.9-8.399c6.465-1.288 45.458 10.51 84.522 25.571 44.168 17.029 120.78 23.989 150.97 13.714 15.999-5.446 19.975-3.211 19.975 11.224 0 9.71-9.484 17.463-16.247 13.284-3.116-1.927-14.901 3.466-16.461 7.531-2.363 6.156 3.38 10.256 12.348 8.822 14.44-2.31 46.065 11.224 59.817 25.597 8.071 8.436 6.189 11.331-4.155 6.399-18.729-8.931-21.217 7.035-12.095 11.277 2.801 1.303 10.778 7.326 17.725 13.383 25.489 22.222 50.652 30.789 30.196 28.401-7.453-0.871-8.055-0.51-7.358 4.417 0.995 7.04 12.627 8.928 17.123 2.779 5.936-8.118 1.352 0.265 74.204 39.675 0.114 0.226 33.88 18.373 30.434 18.378-17.145 0.031-116.77-49.615-139.12-60.031-52.389-24.423-142-85.148-155.1-90.941-5.795-2.563-28.323-18.837-30.468-18.837-3.441 0-42.224-28.951-100.86-52.244-10.587-4.206-17.545-7.986-15.46-8.399zm-1722.1 80.618c-1.568 7.14-6.775 9.52-11.522 5.266-39.998-35.829-169.26-7.865-140.34 30.362 7.571 10.01 1.063 13.413-11.248 5.887-10.772-6.586-13.241-10.964-12.968-22.986 1.099-48.213 81.106-68.435 152.76-38.607 23.429 9.756 25.246 11.319 23.322 20.078zm1386.1-20.077c71.649-29.828 151.66-9.607 152.76 38.607 0.274 12.022-2.196 16.4-12.968 22.986-12.311 7.526-18.818 4.123-11.248-5.887 28.915-38.227-100.34-66.191-140.34-30.362-4.747 4.254-9.954 1.874-11.522-5.266-1.923-8.76-0.106-10.323 23.322-20.078zm-1335.2 178.97c-2.22 0-40.782-39.891-46.657-106.98-1.925-21.97-0.327-22.195 16.158-2.264 14.957 18.082 30.476 48.744 30.476 60.211 0 4.407 1.019 8.644 2.264 9.414 3.964 2.449 1.86 39.623-2.241 39.623zm1258.7-39.622c1.245-0.771 2.264-5.007 2.264-9.414 0-11.467 15.519-42.129 30.476-60.211 16.485-19.931 18.083-19.706 16.158 2.264-5.875 67.093-44.437 106.98-46.657 106.98-4.1-1e-3 -6.204-37.175-2.241-39.623zm-816.65 94.564c-141.54 70.58-307.3 51.105-399.06-15.563-29.16-21.186-30.293-22.486-28.071-32.148 11.066-48.115-14.534-118.98-52.236-144.6-8.668-5.89-10.299-12.598-4.87-20.024 6.928-9.472 55.27 39.477 69.347 70.219 12.103 26.432 12.547 29.582 5.876 41.84-9.154 16.818-4.57 31.747 9.744 31.747 42.202 0-11.304-118.07-69.825-154.08-10.743-6.61-11.054-7.094-9.042-14.107 1.145-3.994 2.082-7.523 2.082-7.843 0-4.967 32.825 16.211 50.159 32.363 33.885 31.572 59.711 83.115 57.236 114.23-2.048 25.773 1.65 31.541-6.639 39.829-7.227 7.227-8.657 5.247 14.151 19.586 51.399 32.315 114.54 48.492 180.71 46.301 78.833-2.609 120.73-13.65 171.38-45.162 12.835-7.984 14.951-7.424 25.308 6.695 11.832 16.129 11.414 16.92-16.254 30.715zm360.58-30.714c10.357-14.119 12.473-14.678 25.308-6.695 50.654 31.512 92.552 42.553 171.38 45.162 66.171 2.191 129.31-13.986 180.71-46.301 22.809-14.338 21.378-12.359 14.151-19.586-8.288-8.288-4.591-14.056-6.638-39.829-2.475-31.114 23.351-82.658 57.236-114.23 17.334-16.152 50.159-37.329 50.159-32.363 0 0.32 0.937 3.849 2.082 7.843 2.012 7.013 1.701 7.498-9.042 14.107-58.521 36.008-112.03 154.08-69.824 154.08 14.315 0 18.898-14.929 9.744-31.747-6.671-12.258-6.227-15.408 5.876-41.84 14.076-30.742 62.419-79.691 69.346-70.219 5.429 7.426 3.798 14.134-4.87 20.024-37.702 25.619-63.302 96.484-52.236 144.6 2.221 9.663 1.089 10.962-28.071 32.148-91.756 66.668-257.52 86.143-399.06 15.563-27.668-13.796-28.086-14.587-16.255-30.715zm-172.16-90.902c-52.012-20.892-40.091-90.985-34.148-56.205 3.671 21.489 21.61 38.685 34.148 40.459 12.539-1.774 30.478-18.969 34.148-40.459 5.943-34.78 17.864 35.313-34.148 56.205zm0 129.78c-2.541 0.589-5.123-0.161-7.316-2.353-2.012-2.012-6.387-1.936-18.368 0.327-19.417 3.664-42.617 2.029-53.989-3.801-9.157-4.696-36.181-18.545-46.028-23.591l13.342-13.138c23.996-23.627 53.853-70.592 59.292-93.269 3.121-13.01 9.909-15.563 12.311-4.628 3.147 14.327 20.095 26.441 40.755 30.557 20.659-4.117 37.608-16.231 40.755-30.557 2.402-10.935 9.19-8.382 12.311 4.628 5.439 22.678 35.296 69.643 59.292 93.269l13.342 13.138c-9.846 5.046-36.87 18.895-46.028 23.591-11.372 5.831-34.572 7.465-53.989 3.801-11.981-2.262-16.356-2.339-18.368-0.327-2.191 2.192-4.773 2.942-7.314 2.353zm0-176.93c-1.248 0.41-2.807 0.61-4.681 0.61-16.048 0-21.6-43.986-8.26-65.447 4.048-6.511 7.358-12.67 7.358-13.689 0-3.101 2.014-6.51 5.583-10.038 3.569 3.528 5.583 6.937 5.583 10.038 0 1.019 3.31 7.178 7.358 13.689 13.34 21.46 7.788 65.447-8.26 65.447-1.874-1e-3 -3.433-0.201-4.681-0.61zm0-144.35c-18.419-0.994-40.86 9.629-62.186 30.648-23.067 22.736-35.6 28.36-52.642 23.627-9.738-2.704-11.183-8.026-3.024-11.129 9.852-3.745 10.387-15.924 0.702-15.924-62.247 0 4.268 115.59 84.457 37.103 8.125-7.953 15.512-14.461 16.415-14.461 3.871 0 1.114 6.445-5.39 12.597-7.936 7.508-24.668 31.164-24.668 34.877 0 1.34-2.439 6.237-5.421 10.879-4.189 6.526-5.758 12.932-6.909 28.221-2.871 38.166-10.28 49.033-27.767 83.241-21.622 42.297-56.204 68.94-69.241 53.343-10.503-12.564-11.268-9.6 8.115-31.388 51.441-57.818 45.803-155.59-7.533-130.6-36.356 17.029-39.748 65.629-4.58 65.629 17.208 0 23.116-14.258 9.193-22.181-10.86-6.179-6.904-16.31 6.37-16.31 22.443 0 13.228 47.284-17.055 87.521-17.342 23.042-23.622 18.458-37.025-27.032-24.659-83.685 12.049-182.81 87.759-236.97 27.325-19.55 75.918-40.776 110.43-50.711 34.511 9.935 83.104 31.161 110.43 50.711 75.709 54.166 112.42 153.29 87.759 236.97-13.403 45.49-19.682 50.074-37.025 27.032-30.282-40.236-39.498-87.521-17.055-87.521 13.274 0 17.23 10.13 6.37 16.31-13.923 7.923-8.014 22.181 9.193 22.181 35.167 0 31.776-48.599-4.58-65.629-53.336-24.981-58.975 72.787-7.533 130.6 19.383 21.788 18.618 18.824 8.115 31.388-13.037 15.597-47.62-11.046-69.241-53.343-17.487-34.208-24.896-45.075-27.767-83.241-1.151-15.289-2.72-21.695-6.909-28.221-2.982-4.642-5.421-9.538-5.421-10.879 0-3.713-16.732-27.369-24.668-34.877-6.504-6.152-9.261-12.597-5.39-12.597 0.903 0 8.29 6.508 16.415 14.461 80.19 78.487 146.7-37.103 84.457-37.103-9.685 0-9.149 12.178 0.702 15.924 8.159 3.102 6.713 8.424-3.024 11.129-17.042 4.734-29.575-0.891-52.642-23.627-21.324-21.019-43.765-31.641-62.184-30.648z"/> <path d="m1103.7 364.49c-2.781 2.781-0.026 8.629 3.286 5.317 2.781-2.779 0.025-8.629-3.286-5.317z"/> <path d="m3896.3 364.49c2.781 2.781 0.026 8.629-3.286 5.317-2.781-2.779-0.026-8.629 3.286-5.317z"/> <path d="m1129.6 355.4c-1.155 3.466 6.273 3.966 6.273-0.896 0-3.999-4.874-3.304-6.273 0.896z"/> <path d="m3870.4 355.4c1.155 3.466-6.273 3.966-6.273-0.896 0-3.999 4.874-3.304 6.273 0.896z"/> <path d="m1161.1 339.97c-1.094 0-3.255 1.529-4.807 3.397-2.356 2.837-2.027 3.397 1.987 3.397 6.77 0 5.032-6.794 2.82-6.794z"/> <path d="m3838.9 339.97c1.094 0 3.256 1.529 4.807 3.397 2.356 2.837 2.027 3.397-1.987 3.397-6.769 0-5.031-6.794-2.82-6.794z"/> <path d="m1252.7 304.45c-9.236 4.286-8.009 12.884 1.839 12.884 4.917 0 8.178-1.289 9.057-3.582 3.683-9.596-1.226-13.788-10.896-9.302z"/> <path d="m3747.3 304.45c9.236 4.286 8.01 12.884-1.839 12.884-4.917 0-8.178-1.289-9.057-3.582-3.682-9.596 1.227-13.788 10.896-9.302z"/> <path d="m1287.4 299.22c-5.565 0-5.838 7.96-0.381 11.139 4.841 2.818 4.024 2.715 8.305 1.072 8.461-3.247 2.644-12.211-7.924-12.211z"/> <path d="m3712.6 299.22c5.565 0 5.837 7.96 0.381 11.139-4.841 2.818-4.024 2.715-8.305 1.072-8.461-3.247-2.644-12.211 7.924-12.211z"/> <path d="m1246.7 290.16c-5.177 0-11.173 4.902-11.173 9.137 0 5.029 6.53 6.07 10.869 1.732 3.365-3.367 3.576-10.869 0.304-10.869z"/> <path d="m3753.3 290.16c5.177 0 11.173 4.902 11.173 9.137 0 5.029-6.53 6.07-10.869 1.732-3.365-3.367-3.576-10.869-0.304-10.869z"/> <path d="m1322.4 284.07c-7.348-2.82-14.395 6.023-11.275 14.15 1.481 3.859 4.601 4.13 10.6 0.92 5.381-2.881 5.839-13.089 0.675-15.07z"/> <path d="m3677.6 284.07c7.348-2.82 14.395 6.023 11.275 14.15-1.481 3.859-4.601 4.13-10.6 0.92-5.382-2.881-5.839-13.089-0.675-15.07z"/> <path d="m1279.1 288.06c-1.556-0.088-2.845-1.942-2.864-4.121-0.073-8.21-3.626-10.852-10.006-7.436-13.243 7.088-2.915 19.718 11.173 13.663-0.227-2e-3 4.456-1.951 1.697-2.106z"/> <path d="m3720.9 288.06c1.556-0.088 2.845-1.942 2.864-4.121 0.073-8.21 3.626-10.852 10.006-7.436 13.243 7.088 2.915 19.718-11.173 13.663 0.227-2e-3 -4.456-1.951-1.697-2.106z"/> <path d="m1298.5 267.99c-6.048-1.192-13.911 7.132-12.107 12.818 1.975 6.22 14.017 6.04 17.968-0.27 2.871-4.585-0.34-11.46-5.861-12.548z"/> <path d="m3701.5 267.99c6.048-1.192 13.912 7.132 12.107 12.818-1.975 6.22-14.017 6.04-17.968-0.27-2.871-4.585 0.34-11.46 5.861-12.548z"/> <path d="m1323.6 260.16c3.81-10.09-7.649-17.856-15.203-10.302-2.929 2.929-3.667 11.427-1.208 13.888 3.757 3.753 14.528 1.401 16.411-3.586z"/> <path d="m3676.4 260.16c-3.81-10.09 7.649-17.856 15.202-10.302 2.929 2.929 3.667 11.427 1.208 13.888-3.756 3.753-14.527 1.401-16.41-3.586z"/> <path d="m1102.8 334.71c-4.725 1.813-3.837 5.263 1.354 5.263 2.49 0 4.528-0.849 4.528-1.886 0-3.192-2.55-4.656-5.882-3.377z"/> <path d="m3897.2 334.71c4.725 1.813 3.837 5.263-1.354 5.263-2.49 0-4.528-0.849-4.528-1.886 0-3.192 2.55-4.656 5.882-3.377z"/> <path d="m1156.6 301.48c-5.157 0-10.392 5.626-8.334 8.957 1.774 2.871 7.974 3.019 12.279 0.293 4.251-2.692 1.455-9.25-3.945-9.25z"/> <path d="m3843.4 301.48c5.157 0 10.393 5.626 8.334 8.957-1.774 2.871-7.974 3.019-12.279 0.293-4.251-2.692-1.455-9.25 3.945-9.25z"/> <path d="m1171.1 292.28c-4.79 5.293-2.931 9.2 4.381 9.2 3.378 0 5.905-1.674 6.805-4.509 2.911-9.168-4.369-12.221-11.186-4.691z"/> <path d="m3828.9 292.28c4.79 5.293 2.931 9.2-4.381 9.2-3.378 0-5.906-1.674-6.805-4.509-2.911-9.168 4.369-12.221 11.186-4.691z"/> <path d="m1201.2 271.02c-5.48 1.74-5.671 11.687-0.247 12.922 5.8 1.32 11.887-2.366 11.887-7.2 1e-3 -4.89-5.593-7.64-11.64-5.722z"/> <path d="m3798.8 271.02c5.48 1.74 5.671 11.687 0.247 12.922-5.8 1.32-11.888-2.366-11.888-7.2 0-4.89 5.594-7.64 11.641-5.722z"/> <path d="m1212.5 253.37c0.645-5.606 0.022-6.227-6.298-6.227-7.945 0-11.198 4.975-6.758 10.328 4.603 5.543 12.223 3.149 13.056-4.101z"/> <path d="m3787.5 253.37c-0.645-5.606-0.022-6.227 6.298-6.227 7.945 0 11.199 4.975 6.758 10.328-4.603 5.543-12.223 3.149-13.056-4.101z"/> <path d="m1242.2 243.67c-7.113-4.395-19.579 5.742-16.602 13.502 1.616 4.211 12.355 4.768 16.279 0.844 3.356-3.359 3.558-12.346 0.323-14.346z"/> <path d="m3757.8 243.67c7.113-4.395 19.579 5.742 16.602 13.502-1.616 4.211-12.355 4.768-16.279 0.844-3.356-3.359-3.558-12.346-0.323-14.346z"/> <path d="m1261 225.8c-8.87 3.101-10.375 14.551-1.912 14.551 10.817 0 19.033-20.538 1.912-14.551z"/> <path d="m3739 225.8c8.87 3.101 10.375 14.551 1.912 14.551-10.816 0-19.033-20.538-1.912-14.551z"/> <path d="m1290.9 220.86c-3.662 2.677-3.856 3.699-1.288 6.793 3.784 4.56 10.103 4.686 13.765 0.274 6.537-7.878-3.554-13.593-12.477-7.067z"/> <path d="m3709.1 220.86c3.662 2.677 3.856 3.699 1.288 6.793-3.784 4.56-10.103 4.686-13.765 0.274-6.537-7.878 3.554-13.593 12.477-7.067z"/> <path d="m1258.2 215.36c2.59-4.839 1.078-13.5-2.356-13.5-9.35 0-17.453 11.182-12.03 16.604 3.215 3.213 12.024 1.313 14.386-3.104z"/> <path d="m3741.8 215.36c-2.59-4.839-1.078-13.5 2.356-13.5 9.35 0 17.453 11.182 12.031 16.604-3.215 3.213-12.024 1.313-14.387-3.104z"/> <path d="m1285.7 201.86c-7.305 0-11.656 2.485-11.656 6.657 0 9.811 14.301 9.413 15.434-0.432 0.568-4.941-0.211-6.225-3.778-6.225z"/> <path d="m3714.3 201.86c7.305 0 11.656 2.485 11.656 6.657 0 9.811-14.301 9.413-15.434-0.432-0.568-4.941 0.211-6.225 3.778-6.225z"/> <path d="m1308.4 202.56c-1.997 10.53 6.841 14.362 14.248 6.179 11.754-12.987-12.773-13.955-14.248-6.179z"/> <path d="m3691.6 202.56c1.997 10.53-6.841 14.362-14.248 6.179-11.753-12.987 12.773-13.955 14.248-6.179z"/> <path d="m1221 193.69c-6.166 1.548-8.173 9.074-2.997 11.239 5.421 2.267 11.847 0.296 12.643-3.878 2e-3 2.111 2.716-10.464-9.646-7.361z"/> <path d="m3779 193.69c6.166 1.548 8.173 9.074 2.997 11.239-5.421 2.267-11.847 0.296-12.643-3.878-1e-3 2.111-2.715-10.464 9.646-7.361z"/> <path d="m1345.6 189.14c-8.305 2.084-8.574 12.717-0.323 12.717 5.873 0 7.766-4.329 7.766-4.084 3.264-6.095-0.439-10.39-7.443-8.633z"/> <path d="m3654.4 189.14c8.305 2.084 8.574 12.717 0.323 12.717-5.873 0-7.766-4.329-7.766-4.084-3.264-6.095 0.439-10.39 7.443-8.633z"/> <path d="m908.34 267.52c0-7.85-0.102-7.931-10.778-8.615-13.262-0.85-16.31 3.665-8.26 12.234 8.42 8.96 19.038 6.943 19.038-3.619z"/> <path d="m4091.7 267.52c0-7.85 0.102-7.931 10.778-8.615 13.262-0.85 16.31 3.665 8.26 12.234-8.42 8.96-19.038 6.943-19.038-3.619z"/> <path d="m875.06 266.11c0.844-5.916-4.417-8.268-12.027-5.375-6.292 2.391-6.987 4.533-2.827 8.695 4.436 4.434 14.054 2.284 14.854-3.32z"/> <path d="m4124.9 266.11c-0.844-5.916 4.417-8.268 12.027-5.375 6.292 2.391 6.987 4.533 2.827 8.695-4.436 4.434-14.054 2.284-14.854-3.32z"/> <path d="m819.5 254.35c-15.898 1.834-1.218 24.758 6.288 10.731 3.728-6.969 1.027-11.577-6.288-10.731z"/> <path d="m4180.5 254.35c15.898 1.834 1.218 24.758-6.288 10.731-3.728-6.969-1.027-11.577 6.288-10.731z"/> <path d="m873.39 251.59c6.241-3.339 5.956-14.964-0.415-16.987-7.671-2.434-14.913 6.106-11.512 13.573 2.867 6.29 5.266 6.977 11.927 3.414z"/> <path d="m4126.6 251.59c-6.241-3.339-5.957-14.964 0.415-16.987 7.671-2.434 14.914 6.106 11.512 13.573-2.867 6.29-5.266 6.977-11.927 3.414z"/> <path d="m820.97 224.95c-8.914-1.036-12.621 4.847-6.751 10.717 5.164 5.164 6.639 5.521 11.105 2.691 5.268-3.339 2.247-12.641-4.354-13.408z"/> <path d="m4179 224.95c8.915-1.036 12.621 4.847 6.751 10.717-5.164 5.164-6.639 5.521-11.105 2.691-5.268-3.339-2.247-12.641 4.354-13.408z"/> <path d="m942.3 229.03c0-4.381-1.281-5.808-5.854-6.341-7.73-0.9-12.884 4.892-8.768 9.851 4.721 5.688 14.622 3.312 14.622-3.51z"/> <path d="m4057.7 229.03c0-4.381 1.281-5.808 5.854-6.341 7.73-0.9 12.884 4.892 8.768 9.851-4.721 5.688-14.622 3.312-14.622-3.51z"/> <path d="m850.75 228.95c6.582-3.522 5.718-13.109-1.429-15.827-10.964-4.169-17.744 3.48-12.226 13.791 2.613 4.881 7.09 5.548 13.655 2.036z"/> <path d="m4149.3 228.95c-6.583-3.522-5.718-13.109 1.429-15.827 10.964-4.169 17.744 3.48 12.226 13.791-2.613 4.881-7.09 5.548-13.655 2.036z"/> <path d="m880.92 219.4c5.266-8.402-8.076-17.334-14.439-9.664-2.315 2.789-2.39 4.834-0.345 9.321 3.012 6.611 10.741 6.791 14.784 0.343z"/> <path d="m4119.1 219.4c-5.266-8.402 8.076-17.334 14.439-9.664 2.315 2.789 2.39 4.834 0.345 9.321-3.012 6.611-10.741 6.791-14.784 0.343z"/> <path d="m823.58 208.57c7.705-4.123 4.324-18.034-4.387-18.034-4.637 0-11.612 6.739-11.612 11.219 1e-3 7.966 7.711 11.25 15.999 6.815z"/> <path d="m4176.4 208.57c-7.705-4.123-4.324-18.034 4.387-18.034 4.637 0 11.612 6.739 11.612 11.219-1e-3 7.966-7.711 11.25-15.999 6.815z"/> </svg>