<?xml version="1.0" encoding="UTF-8"?><svg id="Layer_2" xmlns="http://www.w3.org/2000/svg" viewBox="0 0 1920 1080"><g id="template"><g id="header"><rect id="box" x="-.5" y="-.5" width="1920" height="157.57"/><g id="logo"><rect x="25.57" y="25.57" width="105.43" height="105.43" rx="52.71" ry="52.71" style="fill:#1d1d1b; stroke:#fff; stroke-miterlimit:10;"/><circle cx="78.29" cy="78.28" r="43.93" style="fill:none; stroke:#fff; stroke-miterlimit:10; stroke-width:5px;"/><path d="M49.99,56.57s9.25-2.64,17.62,9.25" style="fill:none; stroke:#fff; stroke-linecap:round; stroke-linejoin:round; stroke-width:5px;"/><path d="M53.95,72.51s3.52-16.29,15.41-22.02" style="fill:none; stroke:#fff; stroke-linecap:round; stroke-linejoin:round; stroke-width:5px;"/><path d="M106.4,56.57s-9.25-2.64-17.62,9.25" style="fill:none; stroke:#fff; stroke-linecap:round; stroke-linejoin:round; stroke-width:5px;"/><path d="M102.44,72.51s-3.52-16.29-15.41-22.02" style="fill:none; stroke:#fff; stroke-linecap:round; stroke-linejoin:round; stroke-width:5px;"/><path d="M78.29,94.57c6.14,0,11.58,2.99,14.95,7.6,1.09,1.49,3.46.74,3.47-1.1,0-.06,0-.12,0-.18,0-10.67-9.03-19.24-19.87-18.47-9.09.65-16.43,7.96-17.11,17.05-.05.64-.06,1.27-.05,1.89.05,1.83,2.43,2.54,3.48,1.04,3.35-4.74,8.87-7.83,15.12-7.83Z" style="fill:none; stroke:#fff; stroke-linecap:round; stroke-linejoin:round; stroke-width:5px;"/></g><text id="heading" transform="translate(1270.17 102.73)" style="fill:#fff; font-family:Amiri-Bold, Amiri; font-size:72px; font-weight:700;"><tspan x="0" y="0">التَّجْرِيْد: مثال رياضي</tspan></text><path d="M180.61,75.99c-.67,0-1.01-.29-1.01-.86,0-.26.08-.55.25-.86l1.01-1.73c.17-.31.25-.6.25-.86,0-.58-.32-.86-.97-.86-.48,0-.98.17-1.51.5-.53.34-.93.75-1.22,1.23l-6.98,12.1c-.17.31-.26.6-.26.86,0,.58.32.86.97.86.48,0,.99-.17,1.53-.5.54-.34.94-.74,1.21-1.22l2.99-5.18c.29-.48.7-.89,1.22-1.23s1.03-.5,1.51-.5h8.64c.67,0,1.01.29,1.01.86,0,.26-.1.55-.29.86l-4,6.91c-.26.48-.67.89-1.21,1.22-.54.34-1.04.5-1.49.5h-24.19c-.67,0-1.01-.29-1.01-.86,0-.26.08-.55.25-.86l9-15.55c.26-.48.67-.89,1.21-1.22.54-.34,1.05-.5,1.53-.5h24.19c.65,0,.97.29.97.86,0,.26-.08.55-.25.86l-2.02,3.46c-.26.48-.67.89-1.21,1.22-.54.34-1.04.5-1.49.5h-8.64Z" style="fill:#fff;"/><path d="M209.81,75.99c-.65,0-.97-.29-.97-.86,0-.26.08-.55.25-.86l1.01-1.73c.17-.31.25-.6.25-.86,0-.58-.34-.86-1.01-.86-.46,0-.96.17-1.5.5-.54.34-.94.74-1.21,1.22l-2.02,3.46c-.17.31-.25.6-.25.86,0,.58.34.86,1.01.86h12.1c.65,0,.97.29.97.86,0,.26-.08.55-.25.86l-4,6.91c-.26.48-.67.89-1.21,1.22-.54.34-1.05.5-1.53.5h-24.19c-.65,0-.97-.29-.97-.86,0-.26.08-.55.25-.86l1.98-3.46c.29-.48.7-.89,1.22-1.22.53-.34,1.03-.5,1.51-.5h8.64c.67,0,1.01.29,1.01.86,0,.26-.1.55-.29.86l-.97,1.73c-.19.31-.29.6-.29.86,0,.58.33.86,1,.86.48,0,.98-.17,1.5-.51.52-.34.93-.75,1.22-1.23l1.98-3.45c.2-.31.3-.6.3-.86,0-.57-.34-.86-1.01-.86h-12.1c-.67,0-1.01-.29-1.01-.86,0-.26.1-.55.29-.86l3.96-6.91c.29-.48.7-.89,1.22-1.22.53-.34,1.03-.5,1.51-.5h24.19c.67,0,1.01.29,1.01.86,0,.26-.1.55-.29.86l-1.98,3.46c-.26.48-.67.89-1.21,1.22-.54.34-1.05.5-1.53.5h-8.64Z" style="fill:#fff;"/><path d="M231.23,77.72c.41,0,.86-.08,1.37-.25.62-.22.94-.5.94-.86,0-.41-.43-.61-1.3-.61h-8.64c-.67,0-1.01-.29-1.01-.86,0-.26.1-.55.29-.86l1.98-3.46c.26-.48.67-.89,1.21-1.22.54-.34,1.05-.5,1.53-.5h8.64c.65,0,.97.29.97.86,0,.26-.08.55-.25.86l-1.01,1.73c-.17.31-.25.6-.25.86,0,.58.34.86,1.01.86.46,0,.95-.17,1.5-.5.54-.33.94-.74,1.21-1.22l1.01-1.73c.26-.48.67-.89,1.21-1.23s1.05-.5,1.53-.5h8.64c.65,0,.97.29.97.86,0,.26-.08.55-.25.86l-1.98,3.46c-.29.48-.7.89-1.22,1.22-.53.34-1.03.5-1.51.5h-8.64c-.41,0-.86.08-1.37.25-.62.22-.94.5-.94.86,0,.41.43.61,1.3.61h8.64c.67,0,1.01.29,1.01.86,0,.26-.1.55-.29.86l-3.96,6.91c-.29.48-.7.89-1.22,1.22-.53.34-1.03.5-1.51.5h-8.64c-.67,0-1.01-.29-1.01-.86,0-.26.1-.55.29-.86l2.99-5.18c.17-.31.25-.6.25-.86,0-.58-.32-.86-.97-.86-.48,0-.98.17-1.51.51-.53.34-.94.75-1.22,1.23l-2.99,5.18c-.26.48-.67.89-1.21,1.22-.54.34-1.05.5-1.53.5h-8.64c-.65,0-.97-.29-.97-.86,0-.26.08-.55.25-.86l4-6.91c.26-.48.67-.89,1.21-1.22s1.05-.5,1.53-.5h8.6Z" style="fill:#fff;"/><polygon points="1880.12 117.68 1840.72 38.89 1801.33 117.68 1880.12 117.68" style="fill:#fff;"/></g></g><g id="triangles"><polygon points="1210 1019.31 746.93 217.26 283.86 1019.31 1210 1019.31" style="fill:#00aeef;"/><polygon points="1094.23 818.8 746.93 217.26 399.63 818.8 1094.23 818.8" style="fill:#00c0f3;"/><polygon points="978.46 618.28 746.93 217.26 515.39 618.28 978.46 618.28" style="fill:#8ed8f8;"/><polygon points="862.69 417.77 746.93 217.26 631.16 417.77 862.69 417.77" style="fill:#e1f4fd;"/></g><g id="paths"><line x1="641.7" y1="252.41" x2="222.47" y2="984.16" style="fill:none; stroke:red; stroke-linecap:round; stroke-linejoin:round; stroke-width:5px;"/><polygon points="605.62 260.03 640.08 255.23 653.37 287.4 661.84 217.26 605.62 260.03" style="fill:red;"/><polygon points="614.03 256.63 658.41 223.25 641.89 252.07 614.03 256.63" style="fill:#ffa6a6;"/><polygon points="652.06 278.42 658.41 223.25 641.89 252.07 652.06 278.42" style="fill:#f66;"/><polygon points="210.8 949.17 224.09 981.34 258.55 976.54 202.33 1019.31 210.8 949.17" style="fill:red;"/><polygon points="212.11 958.16 205.76 1013.32 222.28 984.5 212.11 958.16" style="fill:#ffa6a6;"/><polygon points="250.14 979.95 205.76 1013.32 222.28 984.5 250.14 979.95" style="fill:#f66;"/></g><g id="text"><text transform="translate(1166.41 926.76)" style="font-family:Amiri-Regular, Amiri; font-size:72px;"><tspan x="0" y="0">الجمع: أكثر التفاصيل</tspan></text><text transform="translate(1052.28 726.24)" style="font-family:Amiri-Regular, Amiri; font-size:72px;"><tspan x="0" y="0">الضرب: يجرد الجمع</tspan></text><text transform="translate(935.64 525.73)" style="font-family:Amiri-Regular, Amiri; font-size:72px;"><tspan x="0" y="0">القوة: تجرد الضرب</tspan></text><text transform="translate(835.64 348.22)" style="font-family:Amiri-Regular, Amiri; font-size:72px;"><tspan x="0" y="0">الناتج: يجرد المعادلة</tspan></text><text transform="translate(61.42 592.56)" style="fill:red; font-family:Amiri-Regular, Amiri; font-size:72px;"><tspan x="0" y="0">كمية التفاصيل</tspan></text></g><g id="numbers"><text transform="translate(572.99 943.55)" style="font-family:Amiri-Regular, Amiri; font-size:72px; opacity:.9;"><tspan x="0" y="0">5+5+5+5+5</tspan></text><text transform="translate(692.31 742.99)" style="font-family:Amiri-Regular, Amiri; font-size:72px; opacity:.9;"><tspan x="0" y="0">5×5</tspan></text><text transform="translate(695.16 542.44)" style="font-family:Amiri-Regular, Amiri; font-size:72px; opacity:.9;"><tspan x="0" y="0">5^2</tspan></text><text transform="translate(708.84 365.23)" style="font-family:Amiri-Regular, Amiri; font-size:72px; opacity:.9;"><tspan x="0" y="0">25</tspan></text></g></svg>