<?xml version="1.0" encoding="UTF-8"?><svg id="Layer_1" xmlns="http://www.w3.org/2000/svg" viewBox="0 0 1920.05 1080.1"><g id="template"><g id="header"><rect id="box" y=".05" width="1920" height="157.57"/><g id="logo"><rect x="26.07" y="26.12" width="105.43" height="105.43" rx="52.71" ry="52.71" style="fill:#1d1d1b; stroke:#fff; stroke-miterlimit:10;"/><circle cx="78.79" cy="78.83" r="43.93" style="fill:none; stroke:#fff; stroke-miterlimit:10; stroke-width:5px;"/><path d="M50.49,57.12s9.25-2.64,17.62,9.25" style="fill:none; stroke:#fff; stroke-linecap:round; stroke-linejoin:round; stroke-width:5px;"/><path d="M54.45,73.06s3.52-16.29,15.41-22.02" style="fill:none; stroke:#fff; stroke-linecap:round; stroke-linejoin:round; stroke-width:5px;"/><path d="M106.9,57.12s-9.25-2.64-17.62,9.25" style="fill:none; stroke:#fff; stroke-linecap:round; stroke-linejoin:round; stroke-width:5px;"/><path d="M102.94,73.06s-3.52-16.29-15.41-22.02" style="fill:none; stroke:#fff; stroke-linecap:round; stroke-linejoin:round; stroke-width:5px;"/><path d="M78.79,95.12c6.14,0,11.58,2.99,14.95,7.6,1.09,1.49,3.46.74,3.47-1.1,0-.06,0-.12,0-.18,0-10.67-9.03-19.24-19.87-18.47-9.09.65-16.43,7.96-17.11,17.05-.05.64-.06,1.27-.05,1.89.05,1.83,2.43,2.54,3.48,1.04,3.35-4.74,8.87-7.83,15.12-7.83Z" style="fill:none; stroke:#fff; stroke-linecap:round; stroke-linejoin:round; stroke-width:5px;"/></g><text id="heading" transform="translate(1595.17 103.28)" style="fill:#fff; font-family:Amiri-Bold, Amiri; font-size:72px; font-weight:700;"><tspan x="0" y="0">التَّجْرِيْد</tspan></text><path d="M181.11,76.54c-.67,0-1.01-.29-1.01-.86,0-.26.08-.55.25-.86l1.01-1.73c.17-.31.25-.6.25-.86,0-.58-.32-.86-.97-.86-.48,0-.98.17-1.51.5-.53.34-.93.75-1.22,1.23l-6.98,12.1c-.17.31-.26.6-.26.86,0,.58.32.86.97.86.48,0,.99-.17,1.53-.5.54-.34.94-.74,1.21-1.22l2.99-5.18c.29-.48.7-.89,1.22-1.23s1.03-.5,1.51-.5h8.64c.67,0,1.01.29,1.01.86,0,.26-.1.55-.29.86l-4,6.91c-.26.48-.67.89-1.21,1.22-.54.34-1.04.5-1.49.5h-24.19c-.67,0-1.01-.29-1.01-.86,0-.26.08-.55.25-.86l9-15.55c.26-.48.67-.89,1.21-1.22.54-.34,1.05-.5,1.53-.5h24.19c.65,0,.97.29.97.86,0,.26-.08.55-.25.86l-2.02,3.46c-.26.48-.67.89-1.21,1.22-.54.34-1.04.5-1.49.5h-8.64Z" style="fill:#fff;"/><path d="M210.31,76.54c-.65,0-.97-.29-.97-.86,0-.26.08-.55.25-.86l1.01-1.73c.17-.31.25-.6.25-.86,0-.58-.34-.86-1.01-.86-.46,0-.96.17-1.5.5-.54.34-.94.74-1.21,1.22l-2.02,3.46c-.17.31-.25.6-.25.86,0,.58.34.86,1.01.86h12.1c.65,0,.97.29.97.86,0,.26-.08.55-.25.86l-4,6.91c-.26.48-.67.89-1.21,1.22-.54.34-1.05.5-1.53.5h-24.19c-.65,0-.97-.29-.97-.86,0-.26.08-.55.25-.86l1.98-3.46c.29-.48.7-.89,1.22-1.22.53-.34,1.03-.5,1.51-.5h8.64c.67,0,1.01.29,1.01.86,0,.26-.1.55-.29.86l-.97,1.73c-.19.31-.29.6-.29.86,0,.58.33.86,1,.86.48,0,.98-.17,1.5-.51.52-.34.93-.75,1.22-1.23l1.98-3.45c.2-.31.3-.6.3-.86,0-.57-.34-.86-1.01-.86h-12.1c-.67,0-1.01-.29-1.01-.86,0-.26.1-.55.29-.86l3.96-6.91c.29-.48.7-.89,1.22-1.22.53-.34,1.03-.5,1.51-.5h24.19c.67,0,1.01.29,1.01.86,0,.26-.1.55-.29.86l-1.98,3.46c-.26.48-.67.89-1.21,1.22-.54.34-1.05.5-1.53.5h-8.64Z" style="fill:#fff;"/><path d="M231.73,78.27c.41,0,.86-.08,1.37-.25.62-.22.94-.5.94-.86,0-.41-.43-.61-1.3-.61h-8.64c-.67,0-1.01-.29-1.01-.86,0-.26.1-.55.29-.86l1.98-3.46c.26-.48.67-.89,1.21-1.22.54-.34,1.05-.5,1.53-.5h8.64c.65,0,.97.29.97.86,0,.26-.08.55-.25.86l-1.01,1.73c-.17.31-.25.6-.25.86,0,.58.34.86,1.01.86.46,0,.95-.17,1.5-.5.54-.33.94-.74,1.21-1.22l1.01-1.73c.26-.48.67-.89,1.21-1.23s1.05-.5,1.53-.5h8.64c.65,0,.97.29.97.86,0,.26-.08.55-.25.86l-1.98,3.46c-.29.48-.7.89-1.22,1.22-.53.34-1.03.5-1.51.5h-8.64c-.41,0-.86.08-1.37.25-.62.22-.94.5-.94.86,0,.41.43.61,1.3.61h8.64c.67,0,1.01.29,1.01.86,0,.26-.1.55-.29.86l-3.96,6.91c-.29.48-.7.89-1.22,1.22-.53.34-1.03.5-1.51.5h-8.64c-.67,0-1.01-.29-1.01-.86,0-.26.1-.55.29-.86l2.99-5.18c.17-.31.25-.6.25-.86,0-.58-.32-.86-.97-.86-.48,0-.98.17-1.51.51-.53.34-.94.75-1.22,1.23l-2.99,5.18c-.26.48-.67.89-1.21,1.22-.54.34-1.05.5-1.53.5h-8.64c-.65,0-.97-.29-.97-.86,0-.26.08-.55.25-.86l4-6.91c.26-.48.67-.89,1.21-1.22s1.05-.5,1.53-.5h8.6Z" style="fill:#fff;"/><polygon points="1880.62 118.23 1841.22 39.44 1801.83 118.23 1880.62 118.23" style="fill:#fff;"/></g></g><g id="triangles"><polygon points="1210.5 1019.86 747.43 217.81 284.36 1019.86 1210.5 1019.86" style="fill:#00aeef;"/><polygon points="1094.73 819.35 747.43 217.81 400.13 819.35 1094.73 819.35" style="fill:#00c0f3;"/><polygon points="978.96 618.83 747.43 217.81 515.89 618.83 978.96 618.83" style="fill:#8ed8f8;"/><polygon points="863.19 418.32 747.43 217.81 631.66 418.32 863.19 418.32" style="fill:#e1f4fd;"/></g><g id="text"><text transform="translate(1274.21 495.99)" style="fill:#f0f; font-family:Amiri-Regular, Amiri; font-size:72px;"><tspan x="0" y="0">منظقة ذي تجريد عالٍ</tspan></text><text transform="translate(1214.52 793.63)" style="fill:#f7931e; font-family:Amiri-Regular, Amiri; font-size:72px;"><tspan x="0" y="0">منظقة ذي تجريد منخفض</tspan></text><text transform="translate(61.92 593.11)" style="fill:red; font-family:Amiri-Regular, Amiri; font-size:72px;"><tspan x="0" y="0">كمية التفاصيل</tspan></text><text transform="translate(842.03 531.04) rotate(60)" style="font-family:Amiri-Regular, Amiri; font-size:72px;"><tspan x="0" y="0">طبقات التجريد</tspan></text></g><g id="number"><text transform="translate(359.56 944.01)" style="font-family:Amiri-Regular, Amiri; font-size:72px;"><tspan x="0" y="0">100%</tspan></text><text transform="translate(471.04 743.5)" style="font-family:Amiri-Regular, Amiri; font-size:72px;"><tspan x="0" y="0">75%</tspan></text><text transform="translate(589.61 542.99)" style="font-family:Amiri-Regular, Amiri; font-size:72px;"><tspan x="0" y="0">50%</tspan></text><text transform="translate(685.69 375.89)" style="font-family:Amiri-Regular, Amiri; font-size:72px;"><tspan x="0" y="0">25%</tspan></text></g><g id="paths"><path d="M1251.41,1019.86h232.63c13.81,0,25-11.19,25-25v-139.6" style="fill:none; stroke:#f7931e; stroke-linecap:round; stroke-linejoin:round; stroke-width:5px;"/><polygon points="1275.97 1047.38 1254.67 1019.86 1275.97 992.34 1210.9 1019.86 1275.97 1047.38" style="fill:#f7931e;"/><polygon points="1268.83 1041.77 1217.8 1019.86 1251.02 1019.86 1268.83 1041.77" style="fill:#fcd9b0;"/><polygon points="1268.83 997.94 1217.8 1019.86 1251.02 1019.86 1268.83 997.94" style="fill:#fabe78;"/><line x1="642.2" y1="252.96" x2="222.97" y2="984.71" style="fill:none; stroke:red; stroke-linecap:round; stroke-linejoin:round; stroke-width:5px;"/><polygon points="606.12 260.58 640.58 255.78 653.87 287.95 662.34 217.81 606.12 260.58" style="fill:red;"/><polygon points="614.53 257.18 658.91 223.8 642.39 252.62 614.53 257.18" style="fill:#ffa6a6;"/><polygon points="652.56 278.97 658.91 223.8 642.39 252.62 652.56 278.97" style="fill:#f66;"/><polygon points="211.3 949.72 224.59 981.89 259.05 977.09 202.83 1019.86 211.3 949.72" style="fill:red;"/><polygon points="212.61 958.71 206.26 1013.87 222.78 985.05 212.61 958.71" style="fill:#ffa6a6;"/><polygon points="250.64 980.5 206.26 1013.87 222.78 985.05 250.64 980.5" style="fill:#f66;"/><path d="M788.35,217.83l687.5.37c18.23,0,33,14.79,33,33.02v149.99" style="fill:none; stroke:#f0f; stroke-linecap:round; stroke-linejoin:round; stroke-width:5px;"/><polygon points="812.88 245.36 791.6 217.83 812.91 190.32 747.83 217.81 812.88 245.36" style="fill:#f0f;"/><polygon points="805.75 239.75 754.73 217.81 787.96 217.83 805.75 239.75" style="fill:#ffa6ff;"/><polygon points="805.77 195.92 754.73 217.81 787.96 217.83 805.77 195.92" style="fill:#f6f;"/></g></svg>