<?xml version="1.0" encoding="UTF-8"?><svg id="Layer_1" xmlns="http://www.w3.org/2000/svg" xmlns:xlink="http://www.w3.org/1999/xlink" viewBox="0 0 1920.05 1080.1"><defs><pattern id="_6_dpi_20_" x="0" y="0" width="48" height="48" patternTransform="translate(0 .05)" patternUnits="userSpaceOnUse" viewBox="0 0 48 48"><rect x="0" y="0" width="48" height="48" style="fill:none;"/><path d="M24,50.4c1.32,0,2.4-1.07,2.4-2.4s-1.08-2.4-2.4-2.4-2.4,1.08-2.4,2.4,1.07,2.4,2.4,2.4Z" style="fill:#231f20;"/><path d="M48,50.4c1.32,0,2.4-1.07,2.4-2.4s-1.08-2.4-2.4-2.4-2.4,1.08-2.4,2.4,1.07,2.4,2.4,2.4Z" style="fill:#231f20;"/><path d="M24,26.4c1.32,0,2.4-1.07,2.4-2.4s-1.08-2.4-2.4-2.4-2.4,1.08-2.4,2.4,1.07,2.4,2.4,2.4Z" style="fill:#231f20;"/><path d="M48,26.4c1.32,0,2.4-1.07,2.4-2.4s-1.08-2.4-2.4-2.4-2.4,1.08-2.4,2.4,1.07,2.4,2.4,2.4Z" style="fill:#231f20;"/><path d="M36,38.4c1.32,0,2.4-1.07,2.4-2.4s-1.08-2.4-2.4-2.4-2.4,1.08-2.4,2.4,1.07,2.4,2.4,2.4Z" style="fill:#231f20;"/><path d="M12,38.4c1.32,0,2.4-1.07,2.4-2.4s-1.08-2.4-2.4-2.4-2.4,1.08-2.4,2.4,1.07,2.4,2.4,2.4Z" style="fill:#231f20;"/><path d="M36,14.4c1.32,0,2.4-1.07,2.4-2.4s-1.08-2.4-2.4-2.4-2.4,1.08-2.4,2.4,1.07,2.4,2.4,2.4Z" style="fill:#231f20;"/><path d="M12,14.4c1.32,0,2.4-1.07,2.4-2.4s-1.08-2.4-2.4-2.4-2.4,1.08-2.4,2.4,1.07,2.4,2.4,2.4Z" style="fill:#231f20;"/><path d="M0,50.4c1.32,0,2.4-1.07,2.4-2.4s-1.08-2.4-2.4-2.4-2.4,1.08-2.4,2.4,1.07,2.4,2.4,2.4Z" style="fill:#231f20;"/><path d="M0,26.4c1.32,0,2.4-1.07,2.4-2.4s-1.08-2.4-2.4-2.4-2.4,1.08-2.4,2.4,1.07,2.4,2.4,2.4Z" style="fill:#231f20;"/><path d="M24,2.4c1.32,0,2.4-1.07,2.4-2.4s-1.08-2.4-2.4-2.4-2.4,1.08-2.4,2.4,1.07,2.4,2.4,2.4Z" style="fill:#231f20;"/><path d="M48,2.4c1.32,0,2.4-1.07,2.4-2.4s-1.08-2.4-2.4-2.4-2.4,1.08-2.4,2.4,1.07,2.4,2.4,2.4Z" style="fill:#231f20;"/><path d="M0,2.4c1.32,0,2.4-1.07,2.4-2.4S1.32-2.4,0-2.4-2.4-1.32-2.4,0-1.33,2.4,0,2.4Z" style="fill:#231f20;"/></pattern><linearGradient id="linear-gradient" x1="119.49" y1="631.18" x2="1801.51" y2="631.18" gradientUnits="userSpaceOnUse"><stop offset="0" stop-color="lime"/><stop offset=".22" stop-color="#3cff3c" stop-opacity=".76"/><stop offset=".6" stop-color="#a4ffa4" stop-opacity=".36"/><stop offset=".87" stop-color="#e5ffe5" stop-opacity=".1"/><stop offset="1" stop-color="#fff" stop-opacity="0"/></linearGradient><linearGradient id="linear-gradient-2" x1="745.8" y1="675.64" x2="214.25" y2="675.64" gradientUnits="userSpaceOnUse"><stop offset="0" stop-color="blue"/><stop offset="1" stop-color="blue" stop-opacity="0"/></linearGradient></defs><g id="template"><g id="header"><rect id="box" y=".05" width="1920" height="157.57"/><g id="logo"><rect x="26.07" y="26.12" width="105.43" height="105.43" rx="52.71" ry="52.71" style="fill:#1d1d1b; stroke:#fff; stroke-miterlimit:10;"/><circle cx="78.79" cy="78.83" r="43.93" style="fill:none; stroke:#fff; stroke-miterlimit:10; stroke-width:5px;"/><path d="M50.49,57.12s9.25-2.64,17.62,9.25" style="fill:none; stroke:#fff; stroke-linecap:round; stroke-linejoin:round; stroke-width:5px;"/><path d="M54.45,73.06s3.52-16.29,15.41-22.02" style="fill:none; stroke:#fff; stroke-linecap:round; stroke-linejoin:round; stroke-width:5px;"/><path d="M106.9,57.12s-9.25-2.64-17.62,9.25" style="fill:none; stroke:#fff; stroke-linecap:round; stroke-linejoin:round; stroke-width:5px;"/><path d="M102.94,73.06s-3.52-16.29-15.41-22.02" style="fill:none; stroke:#fff; stroke-linecap:round; stroke-linejoin:round; stroke-width:5px;"/><path d="M78.79,95.12c6.14,0,11.58,2.99,14.95,7.6,1.09,1.49,3.46.74,3.47-1.1,0-.06,0-.12,0-.18,0-10.67-9.03-19.24-19.87-18.47-9.09.65-16.43,7.96-17.11,17.05-.05.64-.06,1.27-.05,1.89.05,1.83,2.43,2.54,3.48,1.04,3.35-4.74,8.87-7.83,15.12-7.83Z" style="fill:none; stroke:#fff; stroke-linecap:round; stroke-linejoin:round; stroke-width:5px;"/></g><text id="heading" transform="translate(1326.25 103.28)" style="fill:#fff; font-family:Amiri-Bold, Amiri; font-size:72px; font-weight:700;"><tspan x="0" y="0">إرهاق بدء التشغيل</tspan></text><path d="M181.11,76.54c-.67,0-1.01-.29-1.01-.86,0-.26.08-.55.25-.86l1.01-1.73c.17-.31.25-.6.25-.86,0-.58-.32-.86-.97-.86-.48,0-.98.17-1.51.5-.53.34-.93.75-1.22,1.23l-6.98,12.1c-.17.31-.26.6-.26.86,0,.58.32.86.97.86.48,0,.99-.17,1.53-.5.54-.34.94-.74,1.21-1.22l2.99-5.18c.29-.48.7-.89,1.22-1.23s1.03-.5,1.51-.5h8.64c.67,0,1.01.29,1.01.86,0,.26-.1.55-.29.86l-4,6.91c-.26.48-.67.89-1.21,1.22-.54.34-1.04.5-1.49.5h-24.19c-.67,0-1.01-.29-1.01-.86,0-.26.08-.55.25-.86l9-15.55c.26-.48.67-.89,1.21-1.22.54-.34,1.05-.5,1.53-.5h24.19c.65,0,.97.29.97.86,0,.26-.08.55-.25.86l-2.02,3.46c-.26.48-.67.89-1.21,1.22-.54.34-1.04.5-1.49.5h-8.64Z" style="fill:#fff;"/><path d="M210.31,76.54c-.65,0-.97-.29-.97-.86,0-.26.08-.55.25-.86l1.01-1.73c.17-.31.25-.6.25-.86,0-.58-.34-.86-1.01-.86-.46,0-.96.17-1.5.5-.54.34-.94.74-1.21,1.22l-2.02,3.46c-.17.31-.25.6-.25.86,0,.58.34.86,1.01.86h12.1c.65,0,.97.29.97.86,0,.26-.08.55-.25.86l-4,6.91c-.26.48-.67.89-1.21,1.22-.54.34-1.05.5-1.53.5h-24.19c-.65,0-.97-.29-.97-.86,0-.26.08-.55.25-.86l1.98-3.46c.29-.48.7-.89,1.22-1.22.53-.34,1.03-.5,1.51-.5h8.64c.67,0,1.01.29,1.01.86,0,.26-.1.55-.29.86l-.97,1.73c-.19.31-.29.6-.29.86,0,.58.33.86,1,.86.48,0,.98-.17,1.5-.51.52-.34.93-.75,1.22-1.23l1.98-3.45c.2-.31.3-.6.3-.86,0-.57-.34-.86-1.01-.86h-12.1c-.67,0-1.01-.29-1.01-.86,0-.26.1-.55.29-.86l3.96-6.91c.29-.48.7-.89,1.22-1.22.53-.34,1.03-.5,1.51-.5h24.19c.67,0,1.01.29,1.01.86,0,.26-.1.55-.29.86l-1.98,3.46c-.26.48-.67.89-1.21,1.22-.54.34-1.05.5-1.53.5h-8.64Z" style="fill:#fff;"/><path d="M231.73,78.27c.41,0,.86-.08,1.37-.25.62-.22.94-.5.94-.86,0-.41-.43-.61-1.3-.61h-8.64c-.67,0-1.01-.29-1.01-.86,0-.26.1-.55.29-.86l1.98-3.46c.26-.48.67-.89,1.21-1.22.54-.34,1.05-.5,1.53-.5h8.64c.65,0,.97.29.97.86,0,.26-.08.55-.25.86l-1.01,1.73c-.17.31-.25.6-.25.86,0,.58.34.86,1.01.86.46,0,.95-.17,1.5-.5.54-.33.94-.74,1.21-1.22l1.01-1.73c.26-.48.67-.89,1.21-1.23s1.05-.5,1.53-.5h8.64c.65,0,.97.29.97.86,0,.26-.08.55-.25.86l-1.98,3.46c-.29.48-.7.89-1.22,1.22-.53.34-1.03.5-1.51.5h-8.64c-.41,0-.86.08-1.37.25-.62.22-.94.5-.94.86,0,.41.43.61,1.3.61h8.64c.67,0,1.01.29,1.01.86,0,.26-.1.55-.29.86l-3.96,6.91c-.29.48-.7.89-1.22,1.22-.53.34-1.03.5-1.51.5h-8.64c-.67,0-1.01-.29-1.01-.86,0-.26.1-.55.29-.86l2.99-5.18c.17-.31.25-.6.25-.86,0-.58-.32-.86-.97-.86-.48,0-.98.17-1.51.51-.53.34-.94.75-1.22,1.23l-2.99,5.18c-.26.48-.67.89-1.21,1.22-.54.34-1.05.5-1.53.5h-8.64c-.65,0-.97-.29-.97-.86,0-.26.08-.55.25-.86l4-6.91c.26-.48.67-.89,1.21-1.22s1.05-.5,1.53-.5h8.6Z" style="fill:#fff;"/></g><line x1="1792.53" y1="78.83" x2="1842.3" y2="78.83" style="fill:none; stroke:#fff; stroke-miterlimit:10; stroke-width:8px;"/><path d="M1890.58,78.83c-22.72,8.43-50.91,22.81-68.38,38.05l13.76-38.05-13.76-38.04c17.47,15.23,45.66,29.62,68.38,38.04Z" style="fill:#fff;"/></g><rect x="62.06" y="530.93" width="1799.64" height="200.51" style="fill:url(#_6_dpi_20_); stroke:#000; stroke-miterlimit:10; stroke-width:5px;"/><rect x="59.3" y="530.93" width="60.19" height="200.51" style="fill:red; stroke:#000; stroke-miterlimit:10; stroke-width:5px;"/><rect x="1801.51" y="530.93" width="60.19" height="200.51" style="fill:lime; stroke:#000; stroke-miterlimit:10; stroke-width:5px;"/><rect x="119.49" y="530.93" width="1682.02" height="200.51" style="fill:url(#linear-gradient);"/><line x1="89.4" y1="495.36" x2="89.4" y2="287.42" style="fill:none; stroke:#f0f; stroke-miterlimit:10; stroke-width:5px;"/><path d="M89.4,525.54c5.27-14.2,14.26-31.82,23.78-42.74l-23.78,8.6-23.77-8.6c9.52,10.92,18.51,28.54,23.77,42.74Z" style="fill:#f0f;"/><line x1="1831.6" y1="495.36" x2="1831.6" y2="287.42" style="fill:none; stroke:#c1272d; stroke-miterlimit:10; stroke-width:5px;"/><path d="M1831.6,525.54c5.27-14.2,14.26-31.82,23.78-42.74l-23.78,8.6-23.77-8.6c9.52,10.92,18.51,28.54,23.77,42.74Z" style="fill:#c1272d;"/><path d="M1801.51,530.93c-.74-44.95-140.02-46.86-174.42-49.78-118.52-6.14-237.28-3.1-355.92-4.33-73.08-.96-146.47-1.52-219.05-11.16-26.06-4.06-56.86-8.74-79.42-23.13-8.08-5.27-15.4-13.92-15.2-24.21,0,0,5,0,5,0-.41,28.18-45.44,37.95-67.33,42.77-44.94,8.85-90.8,11.34-136.43,13.41-145.89,5.38-291.9.43-437.8,4.65-45.47,1.69-91.17,3.81-135.96,12.23-17.71,3.66-35.89,7.8-51.31,17.6-7.55,4.86-14.24,12.51-14.17,21.94-.07-4.57,1.4-9.13,4.03-12.88,21.18-29.34,107-35.52,142.6-39.01,127.44-9.99,255.39-5.74,383.06-7.14,72.8-.96,145.91-1.51,218.16-11.13,22.91-3.59,89.83-12.71,90.16-42.45.08-3.26,4.91-3.33,5,0,0,4.06,1.31,8,3.73,11.37,15.1,20.32,62.18,27.25,86.59,31.01,72.33,9.6,145.52,10.15,218.39,11.11,127.82,1.51,255.9-2.68,383.54,6.12,33.51,3.58,147.35,11.83,146.76,52.99h0Z" style="fill:#f7931e;"/><text transform="translate(68.11 255.59)" style="fill:#f0f; font-family:Amiri-Regular, Amiri; font-size:72px;"><tspan x="0" y="0">منطقة البدء: إضافة ناس إلى العملية صعبة</tspan></text><text transform="translate(760.52 367.94)" style="fill:#f7931e; font-family:Amiri-Regular, Amiri; font-size:72px;"><tspan x="0" y="0">العملية بدأت وتعمل بشكل مستمر</tspan></text><text transform="translate(1578.84 255.59)" style="fill:#c1272d; font-family:Amiri-Regular, Amiri; font-size:72px;"><tspan x="0" y="0">إنتهاء العملية</tspan></text><text transform="translate(62.16 924.87)" style="fill:blue; font-family:Amiri-Regular, Amiri; font-size:72px;"><tspan x="0" y="0">إضافة ناس إلى العملية سهلة ومقنعة</tspan></text><path d="M745.8,631.18l-173.65-100.26v30.91h-196.76c-88.85,0-161.14,72.29-161.14,161.14v97.38h140v-97.38c0-11.65,9.48-21.14,21.14-21.14h196.76v29.6l173.65-100.26Z" style="fill:url(#linear-gradient-2);"/></svg>